# xmcd
#
# Track frame offsets:
#	150
#	13140
#	31673
#	53436
#	68586
#	84979
#	105070
#	119113
#	135113
#	149827
#
# Disc length: 2181 seconds
#
# Revision: 0
# Processed by: cddbd v1.5.2PL0 Copyright (c) Steve Scherf et al.
# Submitted via: audiograbber 1.83.01
#
DISCID=7608830a
DTITLE=—борник - The Best of Love cd2
DYEAR=2006
DGENRE=
TTITLE0=The Look of Love - Andy Wiliams
TTITLE1=When love breakes down - Prefab Sprout
TTITLE2=Always and forever - HeatWave
TTITLE3=Keep on loving you - Reo Speedwagon
TTITLE4=After the love has gone - Earth Wind and Fire
TTITLE5=Total eclipse of the heart - Bonnie Tyler
TTITLE6=I'd be surprisingly good for you - Linda Lewis
TTITLE7=Never gonna give you up - Rick Astley
TTITLE8=You're more than a number in my little red book - The Drifters
TTITLE9=Think I'm gonna fall in love with you - The Dooleys
EXTD=
EXTT0=
EXTT1=
EXTT2=
EXTT3=
EXTT4=
EXTT5=
EXTT6=
EXTT7=
EXTT8=
EXTT9=
PLAYORDER=
